<svg width="336" height="284" viewBox="0 0 336 284" fill="none" xmlns="http://www.w3.org/2000/svg">
<g clip-path="url(#clip0_918_1808)">
<path d="M301.251 265.51L295.6 270.711L300.091 263.177C296.553 256.762 290.767 251.219 290.767 251.219C290.767 251.219 278.762 262.718 278.762 271.757C278.762 280.796 284.137 283.952 290.767 283.952C297.397 283.952 302.772 280.796 302.772 271.757C302.697 269.592 302.179 267.466 301.251 265.51Z" fill="#F0F0F0"/>
<path d="M294.148 270.991V271.437C294.121 276.616 293.247 280.657 291.533 283.502C291.509 283.544 291.482 283.584 291.458 283.625L291.266 283.509L291.083 283.394C292.985 280.321 293.658 275.978 293.682 271.461C293.684 271.316 293.686 271.168 293.684 271.02C293.678 269.108 293.561 267.173 293.373 265.294C293.36 265.149 293.344 265.001 293.329 264.853C293.069 262.374 292.694 260.005 292.31 257.947C292.283 257.801 292.255 257.656 292.226 257.512C291.562 254.032 290.885 251.511 290.73 250.953C290.712 250.884 290.701 250.847 290.699 250.838L290.909 250.779L290.911 250.776L291.123 250.717C291.125 250.726 291.163 250.851 291.224 251.085C291.46 251.959 292.074 254.33 292.676 257.457C292.702 257.599 292.731 257.744 292.758 257.89C293.071 259.559 293.378 261.425 293.62 263.384C293.682 263.876 293.737 264.361 293.786 264.84C293.803 264.988 293.819 265.135 293.832 265.281C294.035 267.312 294.14 269.216 294.148 270.991Z" fill="white"/>
<path d="M292.676 257.459C292.528 257.478 292.378 257.498 292.226 257.514C291.812 257.556 291.397 257.578 290.982 257.578C289.21 257.58 287.461 257.185 285.863 256.422C285.771 256.539 285.678 256.656 285.583 256.775C287.264 257.595 289.111 258.021 290.982 258.019C291.425 258.019 291.868 257.995 292.31 257.948C292.46 257.933 292.61 257.913 292.757 257.891C293.978 257.716 295.164 257.357 296.276 256.826C296.181 256.704 296.089 256.585 295.998 256.468C294.946 256.96 293.826 257.294 292.676 257.459Z" fill="white"/>
<path d="M293.786 264.84C293.633 264.849 293.481 264.853 293.329 264.853C293.283 264.856 293.234 264.856 293.188 264.856C291.269 264.856 289.378 264.392 287.677 263.503C285.976 262.615 284.515 261.329 283.419 259.754C283.331 259.884 283.242 260.014 283.156 260.147C284.299 261.74 285.805 263.038 287.549 263.934C289.294 264.829 291.227 265.297 293.188 265.297C293.25 265.297 293.311 265.297 293.373 265.295C293.527 265.292 293.68 265.288 293.832 265.281C296.187 265.161 298.458 264.364 300.373 262.987C300.303 262.857 300.232 262.727 300.159 262.597C298.298 263.949 296.083 264.728 293.786 264.84Z" fill="white"/>
<path d="M294.147 270.992C293.993 271.005 293.839 271.014 293.684 271.021C293.519 271.027 293.353 271.032 293.188 271.032C290.609 271.029 288.101 270.191 286.038 268.643C283.976 267.096 282.47 264.922 281.747 262.447C281.647 262.626 281.548 262.802 281.453 262.981C282.268 265.45 283.841 267.599 285.947 269.124C288.054 270.648 290.587 271.47 293.188 271.473C293.353 271.473 293.519 271.471 293.682 271.462C293.839 271.457 293.993 271.449 294.147 271.438C297.267 271.194 300.177 269.774 302.288 267.465C302.242 267.302 302.189 267.141 302.136 266.978C300.097 269.303 297.231 270.743 294.147 270.992Z" fill="white"/>
<path d="M253.999 70.1221L254.236 65.6127L255.446 70.626C259.572 71.8686 264.284 71.821 264.284 71.821C264.284 71.821 264.603 62.0518 260.886 58.2514C257.169 54.4511 253.611 55.3334 250.823 58.0587C248.036 60.7839 247.074 64.3201 250.791 68.1204C251.713 68.9997 252.805 69.6809 253.999 70.1221Z" fill="#F0F0F0"/>
<path d="M254.732 64.896L254.549 64.7086C252.43 62.5203 251.136 60.4623 250.686 58.5614C250.679 58.5338 250.674 58.5063 250.667 58.4787L250.796 58.4489L250.92 58.4219C251.384 60.4954 252.887 62.5979 254.734 64.5071C254.793 64.5692 254.853 64.6322 254.915 64.6935C255.704 65.4948 256.549 66.26 257.4 66.973C257.466 67.0288 257.533 67.0846 257.6 67.1403C258.729 68.0757 259.861 68.9175 260.869 69.6249C260.94 69.6752 261.012 69.7247 261.083 69.7731C262.793 70.9636 264.115 71.7451 264.409 71.9163C264.445 71.9377 264.465 71.949 264.469 71.9518L264.406 72.063V72.0648L264.341 72.1769C264.336 72.1741 264.269 72.1367 264.147 72.0637C263.688 71.7935 262.455 71.0487 260.916 69.9813C260.847 69.9329 260.775 69.8834 260.704 69.8331C259.886 69.2599 258.989 68.6014 258.082 67.8776C257.854 67.6962 257.631 67.5149 257.414 67.3336C257.345 67.2787 257.278 67.2229 257.213 67.1672C256.292 66.3965 255.465 65.6395 254.732 64.896Z" fill="white"/>
<path d="M260.916 69.9815C260.97 69.9124 261.025 69.8424 261.083 69.7733C261.239 69.5855 261.405 69.4058 261.579 69.235C262.323 68.506 263.221 67.9531 264.207 67.6171C264.198 67.5298 264.188 67.4426 264.179 67.3535C263.135 67.6996 262.184 68.2797 261.398 69.0495C261.212 69.2319 261.035 69.424 260.869 69.6251C260.812 69.6932 260.757 69.7633 260.704 69.8333C260.263 70.4084 259.912 71.0471 259.663 71.7276C259.752 71.7396 259.84 71.7516 259.926 71.7636C260.167 71.1241 260.5 70.5236 260.916 69.9815Z" fill="white"/>
<path d="M257.414 67.3341C257.474 67.2678 257.536 67.2034 257.6 67.1408C257.619 67.1208 257.639 67.1009 257.659 67.0819C258.465 66.293 259.451 65.711 260.532 65.3853C261.612 65.0596 262.755 64.9999 263.864 65.2114C263.847 65.1204 263.831 65.0294 263.813 64.9384C262.677 64.7382 261.51 64.8113 260.408 65.1518C259.306 65.4923 258.302 66.0904 257.477 66.8964C257.451 66.9218 257.425 66.9472 257.4 66.9735C257.336 67.0379 257.274 67.1023 257.213 67.1677C256.272 68.1866 255.645 69.4549 255.406 70.8209C255.489 70.8466 255.572 70.8723 255.656 70.8971C255.883 69.5638 256.494 68.3255 257.414 67.3341Z" fill="white"/>
<path d="M254.732 64.8967C254.791 64.8277 254.853 64.7605 254.915 64.6942C254.982 64.6234 255.049 64.5535 255.119 64.4855C256.204 63.4268 257.604 62.7481 259.107 62.5509C260.611 62.3538 262.138 62.6489 263.459 63.392C263.428 63.276 263.397 63.161 263.363 63.0469C262.005 62.3439 260.46 62.0866 258.948 62.3116C257.435 62.5366 256.032 63.2323 254.938 64.3001C254.868 64.3681 254.799 64.437 254.734 64.5078C254.67 64.5741 254.609 64.6413 254.549 64.7094C253.337 66.0941 252.698 67.8873 252.759 69.7258C252.846 69.7753 252.935 69.8213 253.024 69.8681C252.925 68.052 253.538 66.2688 254.732 64.8967Z" fill="white"/>
<path d="M82.6317 103.632L82.8687 99.1225L84.0786 104.136C88.204 105.378 92.9166 105.331 92.9166 105.331C92.9166 105.331 93.2352 95.5616 89.5181 91.7612C85.801 87.9609 82.2434 88.8432 79.4558 91.5684C76.6683 94.2937 75.7064 97.8299 79.4235 101.63C80.345 102.509 81.4368 103.191 82.6317 103.632Z" fill="#F0F0F0"/>
<path d="M83.3641 98.4077L83.1809 98.2203C81.0623 96.032 79.7679 93.974 79.3186 92.0731C79.3115 92.0456 79.3063 92.018 79.2993 91.9904L79.4281 91.9606L79.5522 91.9336C80.0162 94.0071 81.5192 96.1096 83.3666 98.0188C83.4256 98.0809 83.4854 98.144 83.5471 98.2052C84.3363 99.0065 85.1809 99.7717 86.0326 100.485C86.098 100.54 86.1653 100.596 86.2325 100.652C87.3615 101.587 88.4933 102.429 89.501 103.137C89.572 103.187 89.6439 103.236 89.7149 103.285C91.4254 104.475 92.7469 105.257 93.0414 105.428C93.0769 105.449 93.0969 105.461 93.1015 105.463L93.0379 105.575V105.577L92.9733 105.689C92.9688 105.686 92.9013 105.648 92.7792 105.575C92.3207 105.305 91.0878 104.56 89.5484 103.493C89.4792 103.445 89.4073 103.395 89.3363 103.345C88.518 102.772 87.6217 102.113 86.7142 101.389C86.486 101.208 86.2632 101.027 86.046 100.845C85.9778 100.79 85.9105 100.735 85.8451 100.679C84.9244 99.9082 84.0974 99.1512 83.3641 98.4077Z" fill="white"/>
<path d="M89.5484 103.493C89.6024 103.424 89.6573 103.354 89.7149 103.285C89.8712 103.097 90.0371 102.918 90.2118 102.747C90.9554 102.018 91.8532 101.465 92.839 101.129C92.8299 101.042 92.8208 100.954 92.8117 100.865C91.7674 101.211 90.8161 101.791 90.0304 102.561C89.8439 102.744 89.6672 102.936 89.501 103.137C89.4443 103.205 89.3894 103.275 89.3363 103.345C88.8952 103.92 88.5441 104.559 88.2949 105.239C88.3847 105.251 88.4726 105.263 88.5587 105.275C88.799 104.636 89.1325 104.035 89.5484 103.493Z" fill="white"/>
<path d="M86.0459 100.846C86.1062 100.78 86.1684 100.715 86.2324 100.653C86.251 100.633 86.2714 100.613 86.2909 100.594C87.0977 99.8047 88.0834 99.2227 89.1639 98.897C90.2444 98.5713 91.3876 98.5116 92.4961 98.7231C92.4797 98.6322 92.4633 98.5412 92.4451 98.4501C91.3094 98.2499 90.1423 98.323 89.0406 98.6635C87.9388 99.004 86.934 99.6021 86.1095 100.408C86.0835 100.434 86.0575 100.459 86.0325 100.485C85.9685 100.55 85.9063 100.614 85.845 100.679C84.9042 101.698 84.2769 102.967 84.0381 104.333C84.1213 104.358 84.2045 104.384 84.2886 104.409C84.5151 103.075 85.1258 101.837 86.0459 100.846Z" fill="white"/>
<path d="M83.3641 98.4065C83.4236 98.3374 83.4849 98.2702 83.5471 98.204C83.614 98.1332 83.6817 98.0633 83.7513 97.9953C84.8367 96.9366 86.2359 96.2578 87.7395 96.0607C89.2431 95.8636 90.77 96.1586 92.0918 96.9017C92.0601 96.7858 92.0293 96.6708 91.9957 96.5567C90.6377 95.8537 89.0927 95.5964 87.5801 95.8214C86.0676 96.0463 84.6644 96.7421 83.5699 97.8098C83.5003 97.8778 83.4316 97.9468 83.3666 98.0176C83.3026 98.0838 83.2413 98.151 83.1809 98.2191C81.9697 99.6039 81.3302 101.397 81.3918 103.236C81.4784 103.285 81.5668 103.331 81.6562 103.378C81.5573 101.562 82.1699 99.7785 83.3641 98.4065Z" fill="white"/>
<path d="M111.245 46.419L111.482 41.9096L112.692 46.9229C116.817 48.1655 121.53 48.1178 121.53 48.1178C121.53 48.1178 121.848 38.3487 118.131 34.5483C114.414 30.748 110.857 31.6303 108.069 34.3556C105.282 37.0808 104.32 40.617 108.037 44.4173C108.958 45.2966 110.05 45.9778 111.245 46.419Z" fill="#F0F0F0"/>
<path d="M111.977 41.1948L111.794 41.0075C109.675 38.8192 108.381 36.7611 107.932 34.8603C107.925 34.8327 107.919 34.8051 107.912 34.7775L108.041 34.7477L108.165 34.7207C108.629 36.7942 110.132 38.8967 111.98 40.8059C112.039 40.868 112.098 40.9311 112.16 40.9923C112.949 41.7936 113.794 42.5588 114.646 43.2718C114.711 43.3276 114.778 43.3834 114.846 43.4392C115.975 44.3745 117.106 45.2163 118.114 45.9237C118.185 45.9741 118.257 46.0235 118.328 46.072C120.038 47.2624 121.36 48.0439 121.654 48.2151C121.69 48.2366 121.71 48.2478 121.715 48.2506L121.651 48.3618V48.3636L121.586 48.4757C121.582 48.4729 121.514 48.4355 121.392 48.3626C120.934 48.0924 119.701 47.3476 118.161 46.2802C118.092 46.2317 118.02 46.1823 117.949 46.1319C117.131 45.5587 116.235 44.9002 115.327 44.1765C115.099 43.9951 114.876 43.8137 114.659 43.6324C114.591 43.5776 114.524 43.5218 114.458 43.466C113.537 42.6954 112.71 41.9383 111.977 41.1948Z" fill="white"/>
<path d="M118.161 46.2803C118.215 46.2112 118.27 46.1412 118.328 46.0721C118.484 45.8843 118.65 45.7046 118.825 45.5338C119.568 44.8048 120.466 44.2519 121.452 43.9159C121.443 43.8287 121.434 43.7414 121.425 43.6523C120.38 43.9984 119.429 44.5785 118.643 45.3483C118.457 45.5307 118.28 45.7228 118.114 45.9239C118.057 45.9921 118.002 46.0621 117.949 46.1321C117.508 46.7072 117.157 47.3459 116.908 48.0264C116.998 48.0384 117.086 48.0504 117.172 48.0624C117.412 47.4229 117.746 46.8224 118.161 46.2803Z" fill="white"/>
<path d="M114.659 43.631C114.719 43.5647 114.781 43.5003 114.845 43.4377C114.864 43.4177 114.884 43.3978 114.904 43.3788C115.711 42.5899 116.696 42.0078 117.777 41.6821C118.857 41.3565 120.001 41.2968 121.109 41.5083C121.093 41.4173 121.076 41.3263 121.058 41.2353C119.922 41.0351 118.755 41.1082 117.654 41.4487C116.552 41.7892 115.547 42.3872 114.723 43.1933C114.697 43.2187 114.671 43.2441 114.646 43.2704C114.582 43.3348 114.519 43.3992 114.458 43.4646C113.517 44.4835 112.89 45.7518 112.651 47.1178C112.734 47.1435 112.818 47.1692 112.902 47.1939C113.128 45.8606 113.739 44.6224 114.659 43.631Z" fill="white"/>
<path d="M111.977 41.1936C112.037 41.1245 112.098 41.0573 112.16 40.9911C112.227 40.9203 112.295 40.8504 112.364 40.7824C113.45 39.7237 114.849 39.0449 116.353 38.8478C117.856 38.6507 119.383 38.9457 120.705 39.6888C120.673 39.5729 120.642 39.4579 120.609 39.3438C119.251 38.6408 117.706 38.3835 116.193 38.6085C114.681 38.8334 113.277 39.5292 112.183 40.5969C112.113 40.665 112.045 40.7339 111.98 40.8047C111.916 40.8709 111.854 40.9381 111.794 41.0062C110.583 42.391 109.943 44.1842 110.005 46.0226C110.091 46.0722 110.18 46.1181 110.269 46.165C110.17 44.3489 110.783 42.5656 111.977 41.1936Z" fill="white"/>
<path d="M46.0565 251.594L36.2674 260.604L44.047 247.554C37.9178 236.442 27.8936 226.838 27.8936 226.838C27.8936 226.838 7.09692 246.758 7.09692 262.417C7.09692 278.076 16.4079 283.543 27.8936 283.543C39.3792 283.543 48.6902 278.076 48.6902 262.417C48.6902 258.932 47.6584 255.235 46.0565 251.594Z" fill="#F0F0F0"/>
<path d="M33.75 261.091V261.863C33.7041 270.835 32.1906 277.835 29.221 282.764C29.179 282.837 29.1332 282.905 29.0911 282.978L28.7586 282.776L28.4414 282.577C31.7358 277.254 32.9015 269.731 32.9435 261.905C32.9474 261.653 32.9512 261.397 32.9474 261.141C32.9359 257.828 32.7333 254.477 32.4085 251.222C32.3856 250.97 32.3588 250.714 32.3321 250.458C31.8811 246.163 31.2314 242.059 30.5664 238.494C30.5205 238.242 30.4708 237.99 30.4211 237.741C29.2707 231.712 28.0974 227.344 27.8299 226.378C27.7993 226.259 27.7802 226.194 27.7764 226.179L28.1395 226.076L28.1433 226.072L28.5102 225.969C28.514 225.984 28.579 226.202 28.686 226.607C29.0949 228.12 30.1574 232.228 31.2008 237.646C31.2466 237.89 31.2963 238.142 31.3422 238.395C31.8849 241.287 32.4162 244.52 32.8366 247.913C32.9436 248.765 33.0391 249.605 33.1232 250.435C33.1538 250.691 33.1805 250.947 33.2035 251.199C33.5551 254.718 33.7372 258.016 33.75 261.091Z" fill="white"/>
<path d="M31.2006 237.645C30.9446 237.68 30.6847 237.714 30.421 237.741C29.7048 237.815 28.9854 237.852 28.2654 237.852C25.1973 237.856 22.1673 237.172 19.3987 235.85C19.2382 236.052 19.0777 236.255 18.9133 236.461C21.8258 237.882 25.0245 238.619 28.2654 238.616C29.034 238.616 29.802 238.575 30.5662 238.494C30.8261 238.467 31.086 238.433 31.342 238.394C33.4557 238.091 35.5111 237.469 37.4379 236.549C37.2736 236.339 37.1131 236.132 36.9564 235.93C35.1327 236.782 33.1932 237.36 31.2006 237.645Z" fill="white"/>
<path d="M33.1232 250.436C32.8595 250.451 32.5958 250.459 32.3321 250.459C32.2518 250.463 32.1678 250.463 32.0875 250.463C28.763 250.463 25.4877 249.659 22.541 248.12C19.5942 246.582 17.0634 244.353 15.1643 241.625C15.0114 241.85 14.8585 242.076 14.7095 242.305C16.689 245.065 19.2978 247.315 22.3199 248.866C25.3419 250.418 28.6903 251.227 32.0875 251.227C32.1945 251.227 32.3015 251.227 32.4086 251.223C32.6761 251.22 32.9398 251.212 33.2035 251.2C37.2841 250.991 41.2182 249.612 44.5353 247.227C44.413 247.001 44.2907 246.776 44.1646 246.55C40.9408 248.892 37.1035 250.243 33.1232 250.436Z" fill="white"/>
<path d="M33.7498 261.092C33.4823 261.115 33.2148 261.13 32.9472 261.141C32.6606 261.153 32.374 261.16 32.0873 261.16C27.62 261.155 23.2746 259.704 19.7016 257.023C16.1286 254.342 13.5202 250.576 12.2671 246.289C12.0951 246.599 11.9231 246.904 11.7588 247.214C13.1707 251.491 15.8949 255.214 19.5442 257.855C23.1935 260.496 27.5824 261.92 32.0873 261.925C32.374 261.925 32.6606 261.921 32.9434 261.906C33.2148 261.898 33.4823 261.883 33.7498 261.863C39.1536 261.441 44.1947 258.981 47.8525 254.982C47.7723 254.699 47.6805 254.42 47.5888 254.137C44.0558 258.166 39.0918 260.661 33.7498 261.092Z" fill="white"/>
<path d="M297.477 174.983C311.663 162.573 317.921 146.523 311.454 139.134C304.987 131.745 288.245 135.816 274.059 148.226C259.873 160.637 253.615 176.687 260.082 184.076C266.548 191.464 283.291 187.393 297.477 174.983Z" fill="#E4E4E4"/>
<path d="M87.8627 184.075C94.3295 176.686 88.0717 160.636 73.8856 148.226C59.6995 135.815 42.957 131.745 36.4903 139.133C30.0236 146.522 36.2814 162.572 50.4675 174.983C64.6536 187.393 81.396 191.464 87.8627 184.075Z" fill="#E4E4E4"/>
<path d="M119.812 283.183C138.662 283.183 153.943 275.224 153.943 265.406C153.943 255.588 138.662 247.629 119.812 247.629C100.961 247.629 85.6802 255.588 85.6802 265.406C85.6802 275.224 100.961 283.183 119.812 283.183Z" fill="#E4E4E4"/>
<path d="M228.133 283.183C246.983 283.183 262.264 275.224 262.264 265.406C262.264 255.588 246.983 247.629 228.133 247.629C209.282 247.629 194.001 255.588 194.001 265.406C194.001 275.224 209.282 283.183 228.133 283.183Z" fill="#E4E4E4"/>
<path d="M173.972 258.662C127.767 258.662 90.1765 221.08 90.1765 174.886C90.1765 128.691 127.767 91.1094 173.972 91.1094C220.177 91.1094 257.768 128.691 257.768 174.886C257.768 221.08 220.177 258.662 173.972 258.662ZM173.972 91.9267C128.218 91.9267 90.994 129.142 90.994 174.886C90.994 220.63 128.218 257.845 173.972 257.845C219.726 257.845 256.95 220.63 256.95 174.886C256.95 129.142 219.726 91.9267 173.972 91.9267Z" fill="#3F3D56"/>
<path d="M153.545 230.686C136.64 224.871 122.423 213.116 113.538 197.606C104.652 182.097 101.703 163.889 105.238 146.369C100.548 155.764 97.919 166.052 97.5272 176.545C97.1354 187.038 98.9896 197.493 102.966 207.212C106.942 216.93 112.948 225.687 120.583 232.898C128.218 240.108 137.305 245.605 147.236 249.02C157.168 252.436 167.714 253.691 178.17 252.703C188.626 251.714 198.75 248.505 207.865 243.289C216.98 238.073 224.875 230.97 231.023 222.457C237.171 213.944 241.429 204.216 243.512 193.925C235.518 209.912 221.989 222.452 205.441 229.214C188.892 235.976 170.45 236.499 153.545 230.686Z" fill="#F0F0F0"/>
<path d="M149.292 168.21C145.05 168.21 141.599 163.72 141.599 158.202C141.599 152.683 145.05 148.193 149.292 148.193C153.534 148.193 156.985 152.683 156.985 158.202C156.985 163.72 153.534 168.21 149.292 168.21Z" fill="#3F3D56"/>
<path d="M195.891 168.21C191.649 168.21 188.198 163.72 188.198 158.202C188.198 152.683 191.649 148.193 195.891 148.193C200.133 148.193 203.584 152.683 203.584 158.202C203.584 163.72 200.133 168.21 195.891 168.21Z" fill="#3F3D56"/>
<path d="M168.658 14.6898C172.722 14.6898 176.016 12.3112 176.016 9.37711C176.016 6.44301 172.722 4.06445 168.658 4.06445C164.595 4.06445 161.301 6.44301 161.301 9.37711C161.301 12.3112 164.595 14.6898 168.658 14.6898Z" fill="#2F2E41"/>
<path d="M168.658 6.49324C171.141 6.49324 173.155 5.03968 173.155 3.24662C173.155 1.45356 171.141 0 168.658 0C166.175 0 164.162 1.45356 164.162 3.24662C164.162 5.03968 166.175 6.49324 168.658 6.49324Z" fill="#2F2E41"/>
<path d="M163.367 11.4986C160.836 8.96831 160.035 5.55676 161.298 3.36133C160.998 3.53226 160.722 3.7421 160.477 3.98541C158.401 6.06013 159.049 10.0709 161.922 12.9435C164.795 15.8163 168.807 16.4631 170.882 14.3883C171.125 14.1435 171.335 13.8675 171.506 13.5676C169.31 14.8298 165.898 14.029 163.367 11.4986Z" fill="#2F2E41"/>
<path d="M92.9208 142.997L90.3367 138.704L105.668 126.695L109.482 133.03L92.9208 142.997Z" fill="#FFB6B6"/>
<path d="M89.4181 146.597L81.085 132.756L81.2601 132.651C82.6892 131.791 84.4014 131.533 86.0202 131.936C87.639 132.338 89.0317 133.366 89.892 134.795L94.9818 143.249L89.4181 146.597Z" fill="#2F2E41"/>
<path d="M254.432 137.276L257.016 132.983L241.685 120.975L237.871 127.31L254.432 137.276Z" fill="#FFB6B6"/>
<path d="M252.371 137.526L257.461 129.073L257.461 129.072C258.321 127.644 259.714 126.615 261.333 126.213C262.951 125.811 264.664 126.068 266.093 126.928L266.268 127.033L257.935 140.874L252.371 137.526Z" fill="#2F2E41"/>
<path d="M154.237 79.9902L153.261 83.8873L126.925 104.966L98.5815 131.448L101.621 138.515L169.18 93.3091L245.344 132.78L248.747 124.989L213.991 101.697L185.247 81.8795L154.237 79.9902Z" fill="#2F2E41"/>
<path d="M163.106 38.2949L151.722 42.0288L153.261 83.4843C153.261 83.4843 173.058 95.3678 185.247 81.8786V40.4143L178.449 38.2949H163.106Z" fill="#6C63FF"/>
<path d="M182.721 43.2642L185.247 40.4141C185.247 40.4141 192.272 42.9794 191.686 50.6781C191.1 58.3768 186.972 82.8628 186.972 82.8628L186.195 98.8347H178.862L181.784 57.5295L182.721 43.2642Z" fill="#6C63FF"/>
<path d="M154.925 44.4908L152.398 41.6406C152.398 41.6406 145.374 44.206 145.96 51.9047C146.545 59.6033 150.674 84.0894 150.674 84.0894L151.45 100.061H158.784L155.861 58.756L154.925 44.4908Z" fill="#6C63FF"/>
<path d="M155.169 106.639C157.652 106.639 159.666 104.626 159.666 102.144C159.666 99.6611 157.652 97.6484 155.169 97.6484C152.686 97.6484 150.673 99.6611 150.673 102.144C150.673 104.626 152.686 106.639 155.169 106.639Z" fill="#FFB6B6"/>
<path d="M182.556 106.639C185.039 106.639 187.052 104.626 187.052 102.144C187.052 99.6611 185.039 97.6484 182.556 97.6484C180.073 97.6484 178.06 99.6611 178.06 102.144C178.06 104.626 180.073 106.639 182.556 106.639Z" fill="#FFB6B6"/>
<path d="M168.468 34.8917C175.346 34.8917 180.921 29.3178 180.921 22.442C180.921 15.5661 175.346 9.99219 168.468 9.99219C161.591 9.99219 156.016 15.5661 156.016 22.442C156.016 29.3178 161.591 34.8917 168.468 34.8917Z" fill="#2F2E41"/>
<path d="M168.844 35.303C174.388 35.303 178.883 30.8092 178.883 25.2658C178.883 19.7223 174.388 15.2285 168.844 15.2285C163.299 15.2285 158.804 19.7223 158.804 25.2658C158.804 30.8092 163.299 35.303 168.844 35.303Z" fill="#FFB6B6"/>
<path d="M158.294 18.9511C160.589 20.5319 163.312 21.3733 166.098 21.3621C165.104 22.0511 163.973 22.5165 162.781 22.7263C166.486 23.5207 170.315 23.5422 174.028 22.7894C174.853 22.6571 175.65 22.3837 176.382 21.981C176.747 21.7772 177.065 21.4989 177.316 21.1641C177.566 20.8293 177.743 20.4456 177.836 20.0379C178.082 18.6286 176.984 17.3483 175.842 16.4854C174.095 15.1844 172.08 14.288 169.943 13.8611C167.806 13.4343 165.602 13.4876 163.488 14.0172C162.108 14.3738 160.725 14.9764 159.829 16.0844C158.933 17.1925 158.667 18.9008 159.521 20.0418L158.294 18.9511Z" fill="#2F2E41"/>
<path d="M335.591 284.001H0.408759C0.300349 284.001 0.19638 283.958 0.119722 283.881C0.0430653 283.805 0 283.701 0 283.592C0 283.484 0.0430653 283.38 0.119722 283.303C0.19638 283.227 0.300349 283.184 0.408759 283.184H335.591C335.7 283.184 335.804 283.227 335.88 283.303C335.957 283.38 336 283.484 336 283.592C336 283.701 335.957 283.805 335.88 283.881C335.804 283.958 335.7 284.001 335.591 284.001Z" fill="#3F3D56"/>
<path d="M161.301 207.58C161.301 210.615 162.506 213.525 164.653 215.671C166.799 217.817 169.71 219.023 172.746 219.023C175.781 219.023 178.692 217.817 180.839 215.671C182.985 213.525 184.191 210.615 184.191 207.58H161.301Z" fill="#3F3D56"/>
<path d="M214.898 193.276C220.316 193.276 224.708 188.885 224.708 183.468C224.708 178.051 220.316 173.66 214.898 173.66C209.48 173.66 205.088 178.051 205.088 183.468C205.088 188.885 209.48 193.276 214.898 193.276Z" fill="#F0F0F0"/>
<path d="M130.285 193.276C135.703 193.276 140.095 188.885 140.095 183.468C140.095 178.051 135.703 173.66 130.285 173.66C124.867 173.66 120.475 178.051 120.475 183.468C120.475 188.885 124.867 193.276 130.285 193.276Z" fill="#F0F0F0"/>
</g>
<defs>
<clipPath id="clip0_918_1808">
<rect width="336" height="284" fill="white"/>
</clipPath>
</defs>
</svg>
