<svg width="96" height="46" viewBox="0 0 96 46" fill="none" xmlns="http://www.w3.org/2000/svg">
<path d="M34.4011 14.3186V22.5013H32.6992V14.3186H34.4011Z" fill="#F2F2F2"/>
<path d="M35.877 22.5013V16.3643H37.5789V22.5013H35.877ZM36.7319 15.5732C36.4789 15.5732 36.2618 15.4893 36.0807 15.3215C35.9023 15.151 35.813 14.9473 35.813 14.7102C35.813 14.4758 35.9023 14.2747 36.0807 14.1069C36.2618 13.9364 36.4789 13.8512 36.7319 13.8512C36.985 13.8512 37.2007 13.9364 37.3792 14.1069C37.5603 14.2747 37.6508 14.4758 37.6508 14.7102C37.6508 14.9473 37.5603 15.151 37.3792 15.3215C37.2007 15.4893 36.985 15.5732 36.7319 15.5732Z" fill="#F2F2F2"/>
<path d="M42.3548 16.3643V17.6428H38.5674V16.3643H42.3548ZM39.4343 22.5013V15.9208C39.4343 15.476 39.5209 15.1071 39.694 14.8141C39.8698 14.5211 40.1095 14.3013 40.4131 14.1548C40.7168 14.0083 41.0617 13.9351 41.4479 13.9351C41.7089 13.9351 41.9473 13.955 42.163 13.995C42.3814 14.035 42.5439 14.0709 42.6505 14.1029L42.3468 15.3814C42.2802 15.3601 42.1977 15.3401 42.0991 15.3215C42.0032 15.3028 41.9047 15.2935 41.8035 15.2935C41.5531 15.2935 41.3787 15.3521 41.2801 15.4693C41.1816 15.5839 41.1323 15.745 41.1323 15.9528V22.5013H39.4343Z" fill="#F2F2F2"/>
<path d="M46.084 22.6212C45.4527 22.6212 44.9094 22.4933 44.4539 22.2376C44.0011 21.9792 43.6522 21.6143 43.4072 21.1429C43.1621 20.6687 43.0396 20.108 43.0396 19.4608C43.0396 18.8295 43.1621 18.2755 43.4072 17.7987C43.6522 17.3219 43.9971 16.9503 44.4419 16.6839C44.8894 16.4176 45.4141 16.2844 46.016 16.2844C46.4209 16.2844 46.7978 16.3497 47.1467 16.4802C47.4983 16.608 47.8046 16.8011 48.0656 17.0595C48.3293 17.3179 48.5343 17.6428 48.6808 18.0344C48.8273 18.4233 48.9006 18.8788 48.9006 19.4008V19.8683H43.7188V18.8135H47.2985C47.2985 18.5685 47.2452 18.3514 47.1387 18.1623C47.0322 17.9731 46.8843 17.8253 46.6952 17.7188C46.5088 17.6095 46.2917 17.5549 46.044 17.5549C45.7857 17.5549 45.5566 17.6149 45.3568 17.7347C45.1597 17.8519 45.0053 18.0104 44.8934 18.2102C44.7815 18.4073 44.7243 18.6271 44.7216 18.8694V19.8723C44.7216 20.176 44.7775 20.4383 44.8894 20.6594C45.0039 20.8805 45.1651 21.051 45.3728 21.1708C45.5806 21.2907 45.8269 21.3506 46.1119 21.3506C46.301 21.3506 46.4742 21.324 46.6313 21.2707C46.7884 21.2174 46.923 21.1375 47.0348 21.031C47.1467 20.9244 47.2319 20.7939 47.2905 20.6394L48.8646 20.7433C48.7847 21.1215 48.6209 21.4518 48.3732 21.7342C48.1282 22.0139 47.8112 22.2323 47.4224 22.3894C47.0361 22.5439 46.59 22.6212 46.084 22.6212Z" fill="#F2F2F2"/>
<path d="M52.8721 22.5013V14.3186H54.574V17.3951H54.626C54.7005 17.23 54.8084 17.0622 54.9496 16.8917C55.0934 16.7186 55.2798 16.5747 55.5089 16.4602C55.7406 16.343 56.0283 16.2844 56.3719 16.2844C56.8193 16.2844 57.2322 16.4016 57.6104 16.636C57.9886 16.8677 58.2909 17.218 58.5173 17.6868C58.7437 18.1529 58.8569 18.7376 58.8569 19.4408C58.8569 20.1253 58.7463 20.7034 58.5253 21.1748C58.3069 21.6436 58.0086 21.9992 57.6303 22.2416C57.2548 22.4813 56.834 22.6012 56.3679 22.6012C56.0376 22.6012 55.7566 22.5466 55.5249 22.4374C55.2958 22.3282 55.108 22.191 54.9616 22.0258C54.8151 21.858 54.7032 21.6889 54.626 21.5184H54.5501V22.5013H52.8721ZM54.5381 19.4328C54.5381 19.7977 54.5887 20.116 54.6899 20.3877C54.7911 20.6594 54.9376 20.8712 55.1294 21.023C55.3211 21.1722 55.5542 21.2467 55.8285 21.2467C56.1055 21.2467 56.3399 21.1708 56.5317 21.019C56.7234 20.8645 56.8686 20.6514 56.9671 20.3797C57.0684 20.1054 57.119 19.7897 57.119 19.4328C57.119 19.0785 57.0697 18.7669 56.9711 18.4979C56.8726 18.2288 56.7274 18.0184 56.5357 17.8666C56.3439 17.7148 56.1082 17.6388 55.8285 17.6388C55.5515 17.6388 55.3171 17.7121 55.1254 17.8586C54.9363 18.0051 54.7911 18.2129 54.6899 18.4819C54.5887 18.7509 54.5381 19.0679 54.5381 19.4328Z" fill="#F2F2F2"/>
<path d="M61.8549 22.6172C61.4634 22.6172 61.1145 22.5493 60.8082 22.4134C60.5019 22.2749 60.2595 22.0711 60.081 21.8021C59.9052 21.5304 59.8174 21.1921 59.8174 20.7873C59.8174 20.4463 59.8799 20.16 60.0051 19.9282C60.1303 19.6965 60.3008 19.51 60.5165 19.3689C60.7323 19.2277 60.9773 19.1212 61.2516 19.0492C61.5286 18.9773 61.8189 18.9267 62.1226 18.8974C62.4795 18.8601 62.7671 18.8255 62.9855 18.7935C63.2039 18.7589 63.3624 18.7083 63.461 18.6417C63.5595 18.5751 63.6088 18.4766 63.6088 18.346V18.3221C63.6088 18.069 63.5289 17.8732 63.3691 17.7347C63.2119 17.5962 62.9882 17.527 62.6979 17.527C62.3916 17.527 62.1479 17.5949 61.9668 17.7307C61.7856 17.8639 61.6658 18.0317 61.6072 18.2342L60.0331 18.1063C60.113 17.7334 60.2701 17.4111 60.5045 17.1394C60.7389 16.8651 61.0412 16.6546 61.4114 16.5081C61.7843 16.359 62.2158 16.2844 62.7059 16.2844C63.0468 16.2844 63.3731 16.3243 63.6847 16.4043C63.999 16.4842 64.2773 16.608 64.5197 16.7758C64.7647 16.9436 64.9578 17.1594 65.099 17.4231C65.2402 17.6841 65.3107 17.9971 65.3107 18.362V22.5013H63.6967V21.6503H63.6487C63.5502 21.8421 63.4184 22.0112 63.2532 22.1577C63.0881 22.3015 62.8897 22.4147 62.6579 22.4973C62.4262 22.5772 62.1585 22.6172 61.8549 22.6172ZM62.3423 21.4425C62.5927 21.4425 62.8137 21.3932 63.0055 21.2947C63.1973 21.1935 63.3478 21.0576 63.457 20.8871C63.5662 20.7167 63.6208 20.5236 63.6208 20.3078V19.6565C63.5675 19.6912 63.4943 19.7231 63.401 19.7524C63.3105 19.7791 63.2079 19.8044 63.0934 19.8284C62.9789 19.8497 62.8644 19.8696 62.7498 19.8883C62.6353 19.9043 62.5314 19.9189 62.4382 19.9322C62.2384 19.9615 62.064 20.0081 61.9148 20.0721C61.7657 20.136 61.6498 20.2226 61.5672 20.3318C61.4847 20.4383 61.4434 20.5715 61.4434 20.7313C61.4434 20.9631 61.5273 21.1402 61.6951 21.2627C61.8656 21.3826 62.0813 21.4425 62.3423 21.4425Z" fill="#F2F2F2"/>
<path d="M68.4456 14.3186V22.5013H66.7437V14.3186H68.4456Z" fill="#F2F2F2"/>
<path d="M71.6714 22.6172C71.2798 22.6172 70.9309 22.5493 70.6246 22.4134C70.3183 22.2749 70.076 22.0711 69.8975 21.8021C69.7217 21.5304 69.6338 21.1921 69.6338 20.7873C69.6338 20.4463 69.6964 20.16 69.8216 19.9282C69.9468 19.6965 70.1172 19.51 70.333 19.3689C70.5487 19.2277 70.7938 19.1212 71.0681 19.0492C71.3451 18.9773 71.6354 18.9267 71.939 18.8974C72.2959 18.8601 72.5836 18.8255 72.802 18.7935C73.0204 18.7589 73.1789 18.7083 73.2774 18.6417C73.376 18.5751 73.4253 18.4766 73.4253 18.346V18.3221C73.4253 18.069 73.3453 17.8732 73.1855 17.7347C73.0284 17.5962 72.8047 17.527 72.5143 17.527C72.208 17.527 71.9643 17.5949 71.7832 17.7307C71.6021 17.8639 71.4823 18.0317 71.4237 18.2342L69.8496 18.1063C69.9295 17.7334 70.0866 17.4111 70.321 17.1394C70.5554 16.8651 70.8577 16.6546 71.2279 16.5081C71.6008 16.359 72.0323 16.2844 72.5223 16.2844C72.8633 16.2844 73.1895 16.3243 73.5012 16.4043C73.8154 16.4842 74.0938 16.608 74.3362 16.7758C74.5812 16.9436 74.7743 17.1594 74.9155 17.4231C75.0566 17.6841 75.1272 17.9971 75.1272 18.362V22.5013H73.5131V21.6503H73.4652C73.3667 21.8421 73.2348 22.0112 73.0697 22.1577C72.9045 22.3015 72.7061 22.4147 72.4744 22.4973C72.2427 22.5772 71.975 22.6172 71.6714 22.6172ZM72.1588 21.4425C72.4091 21.4425 72.6302 21.3932 72.822 21.2947C73.0137 21.1935 73.1642 21.0576 73.2734 20.8871C73.3826 20.7167 73.4372 20.5236 73.4372 20.3078V19.6565C73.384 19.6912 73.3107 19.7231 73.2175 19.7524C73.1269 19.7791 73.0244 19.8044 72.9099 19.8284C72.7953 19.8497 72.6808 19.8696 72.5663 19.8883C72.4518 19.9043 72.3479 19.9189 72.2547 19.9322C72.0549 19.9615 71.8804 20.0081 71.7313 20.0721C71.5821 20.136 71.4663 20.2226 71.3837 20.3318C71.3011 20.4383 71.2599 20.5715 71.2599 20.7313C71.2599 20.9631 71.3438 21.1402 71.5116 21.2627C71.682 21.3826 71.8978 21.4425 72.1588 21.4425Z" fill="#F2F2F2"/>
<path d="M78.2621 18.9534V22.5013H76.5601V16.3643H78.1822V17.4471H78.2541C78.3899 17.0901 78.6176 16.8078 78.9373 16.6C79.2569 16.3896 79.6444 16.2844 80.0999 16.2844C80.526 16.2844 80.8976 16.3776 81.2145 16.5641C81.5315 16.7505 81.7778 17.0169 81.9536 17.3632C82.1294 17.7068 82.2173 18.117 82.2173 18.5938V22.5013H80.5154V18.8974C80.518 18.5218 80.4221 18.2288 80.2277 18.0184C80.0333 17.8053 79.7656 17.6988 79.4247 17.6988C79.1956 17.6988 78.9932 17.7481 78.8174 17.8466C78.6443 17.9452 78.5084 18.089 78.4099 18.2781C78.314 18.4646 78.2647 18.6897 78.2621 18.9534Z" fill="#F2F2F2"/>
<path d="M86.4439 22.6212C85.8153 22.6212 85.2746 22.488 84.8218 22.2216C84.3717 21.9526 84.0254 21.5797 83.7831 21.1029C83.5434 20.6261 83.4235 20.0774 83.4235 19.4568C83.4235 18.8282 83.5447 18.2768 83.7871 17.8027C84.0321 17.3259 84.3797 16.9543 84.8298 16.6879C85.2799 16.4189 85.8153 16.2844 86.4359 16.2844C86.9712 16.2844 87.44 16.3816 87.8422 16.5761C88.2444 16.7705 88.5626 17.0435 88.797 17.3951C89.0314 17.7467 89.1606 18.1596 89.1846 18.6337H87.5785C87.5332 18.3274 87.4134 18.081 87.2189 17.8946C87.0272 17.7054 86.7755 17.6109 86.4638 17.6109C86.2002 17.6109 85.9698 17.6828 85.7727 17.8266C85.5782 17.9678 85.4264 18.1742 85.3172 18.4459C85.208 18.7176 85.1534 19.0466 85.1534 19.4328C85.1534 19.8244 85.2067 20.1573 85.3132 20.4317C85.4224 20.706 85.5756 20.9151 85.7727 21.059C85.9698 21.2028 86.2002 21.2747 86.4638 21.2747C86.6583 21.2747 86.8327 21.2348 86.9872 21.1548C87.1443 21.0749 87.2735 20.9591 87.3747 20.8072C87.4786 20.6527 87.5465 20.4676 87.5785 20.2519H89.1846C89.1579 20.7207 89.0301 21.1335 88.801 21.4905C88.5746 21.8447 88.2617 22.1217 87.8621 22.3215C87.4626 22.5213 86.9899 22.6212 86.4439 22.6212Z" fill="#F2F2F2"/>
<path d="M93.1834 22.6212C92.5522 22.6212 92.0088 22.4933 91.5534 22.2376C91.1006 21.9792 90.7516 21.6143 90.5066 21.1429C90.2616 20.6687 90.1391 20.108 90.1391 19.4608C90.1391 18.8295 90.2616 18.2755 90.5066 17.7987C90.7516 17.3219 91.0966 16.9503 91.5414 16.6839C91.9888 16.4176 92.5135 16.2844 93.1155 16.2844C93.5203 16.2844 93.8972 16.3497 94.2461 16.4802C94.5977 16.608 94.904 16.8011 95.165 17.0595C95.4287 17.3179 95.6338 17.6428 95.7803 18.0344C95.9268 18.4233 96 18.8788 96 19.4008V19.8683H90.8182V18.8135H94.3979C94.3979 18.5685 94.3447 18.3514 94.2381 18.1623C94.1316 17.9731 93.9838 17.8253 93.7947 17.7188C93.6082 17.6095 93.3911 17.5549 93.1434 17.5549C92.8851 17.5549 92.656 17.6149 92.4563 17.7347C92.2592 17.8519 92.1047 18.0104 91.9928 18.2102C91.881 18.4073 91.8237 18.6271 91.821 18.8694V19.8723C91.821 20.176 91.877 20.4383 91.9888 20.6594C92.1034 20.8805 92.2645 21.051 92.4722 21.1708C92.68 21.2907 92.9264 21.3506 93.2114 21.3506C93.4005 21.3506 93.5736 21.324 93.7307 21.2707C93.8879 21.2174 94.0224 21.1375 94.1342 21.031C94.2461 20.9244 94.3313 20.7939 94.3899 20.6394L95.964 20.7433C95.8841 21.1215 95.7203 21.4518 95.4726 21.7342C95.2276 22.0139 94.9106 22.2323 94.5218 22.3894C94.1356 22.5439 93.6894 22.6212 93.1834 22.6212Z" fill="#F2F2F2"/>
<path fill-rule="evenodd" clip-rule="evenodd" d="M28.4612 37.9096C33.6406 36.1584 37.9121 32.4213 40.3362 27.5204C39.1241 29.9709 36.9884 31.8394 34.3987 32.715C31.809 33.5906 28.9775 33.4016 26.5271 32.1894C24.0768 30.9772 22.2083 28.8413 21.3326 26.2514C20.457 23.6616 20.646 20.83 21.858 18.3795C23.07 15.9291 23.259 13.0975 22.3834 10.5076C21.5077 7.9178 19.6392 5.78185 17.1889 4.5697C14.7385 3.35754 11.907 3.16846 9.31734 4.04406C6.72764 4.91966 4.59186 6.78821 3.37984 9.23865C0.955797 14.1395 0.577837 19.8027 2.32911 24.9824C4.08038 30.1621 7.81742 34.434 12.7181 36.8584C17.6188 39.2827 23.2818 39.6608 28.4612 37.9096ZM13.6021 12.6528C14.8777 13.2838 15.4003 14.8296 14.7693 16.1053C14.1384 17.381 12.5927 17.9035 11.3171 17.2725C10.0414 16.6414 9.51882 15.0957 10.1498 13.82C10.7808 12.5443 12.3264 12.0217 13.6021 12.6528Z" fill="#F0F0F0"/>
</svg>
