<svg width="21" height="21" viewBox="0 0 21 21" fill="none" xmlns="http://www.w3.org/2000/svg">
<path d="M11.5141 1.08896L13.8826 5.88821C14.0473 6.222 14.3658 6.45329 14.7342 6.50673L20.0306 7.27638C20.9584 7.4113 21.3285 8.5511 20.6575 9.2051L16.825 12.9408C16.5586 13.2005 16.4369 13.5751 16.4999 13.9417L17.4045 19.2167C17.5631 20.1405 16.5933 20.8449 15.7636 20.409L11.0265 17.9187C10.6971 17.7457 10.3033 17.7457 9.97391 17.9187L5.23687 20.409C4.4072 20.8453 3.43737 20.1405 3.59594 19.2167L4.50051 13.9417C4.56359 13.5751 4.44181 13.2005 4.17548 12.9408L0.342999 9.2051C-0.32809 8.55066 0.0420603 7.41086 0.969845 7.27638L6.26628 6.50673C6.63468 6.45329 6.95314 6.222 7.11784 5.88821L9.48637 1.08896C9.90076 0.248343 11.0993 0.248343 11.5141 1.08896Z" fill="#ED8A19"/>
</svg>
